<svg width="33" height="33" viewBox="0 0 33 33" fill="none" xmlns="http://www.w3.org/2000/svg">
<path d="M33 16.5C33 25.6127 25.6127 33 16.5 33C7.3873 33 0 25.6127 0 16.5C0 7.3873 7.3873 0 16.5 0C25.6127 0 33 7.3873 33 16.5Z" fill="#322C58"/>
<path d="M16.1342 17.4395C17.0389 16.9245 17.6429 15.9947 17.6429 14.9333C17.6429 13.3133 16.2358 12 14.5 12C12.7642 12 11.3571 13.3133 11.3571 14.9333C11.3571 15.9947 11.9611 16.9245 12.8658 17.4395C12.0226 17.7173 11.2469 18.2088 10.6109 18.8821C9.57946 19.9743 9 21.4555 9 23L20 23C20 21.4555 19.4205 19.9743 18.3891 18.8821C17.7531 18.2088 16.9774 17.7173 16.1342 17.4395Z" fill="white"/>
<path d="M23.9 9.99875C23.9 9.44647 23.4523 8.99875 22.9 8.99875C22.3477 8.99875 21.9 9.44647 21.9 9.99875V12H20C19.4477 12 19 12.4477 19 13C19 13.5523 19.4477 14 20 14H21.9V16.0012C21.9 16.5535 22.3477 17.0013 22.9 17.0013C23.4523 17.0013 23.9 16.5535 23.9 16.0012V14H26C26.5523 14 27 13.5523 27 13C27 12.4477 26.5523 12 26 12H23.9V9.99875Z" fill="white"/>
</svg>
