<svg width="32" height="34" viewBox="0 0 32 34" fill="none" xmlns="http://www.w3.org/2000/svg">
<path fill-rule="evenodd" clip-rule="evenodd" d="M24 14.5C24 19.7467 19.7467 24 14.5 24C9.25329 24 5 19.7467 5 14.5C5 9.25329 9.25329 5 14.5 5C19.7467 5 24 9.25329 24 14.5ZM21.4709 27.2175C19.4024 28.3537 17.0267 29 14.5 29C6.49187 29 0 22.5081 0 14.5C0 6.49187 6.49187 0 14.5 0C22.5081 0 29 6.49187 29 14.5C29 18.1421 27.6572 21.4706 25.4396 24.0174L30.9602 29.8342C31.7206 30.6354 31.5166 32.0729 30.5046 33.0449C29.4925 34.017 28.0557 34.1555 27.2952 33.3543L21.4709 27.2175ZM12.0002 19.8557C11.9865 20.9601 12.8709 21.8665 13.9754 21.8802C15.0798 21.8938 15.9862 21.0094 15.9999 19.905L16.0361 16.9646L18.9764 17.0009C20.0809 17.0145 20.9873 16.1302 21.0009 15.0257C21.0145 13.9212 20.1302 13.0148 19.0257 13.0012L16.0854 12.9649L16.1216 10.0246C16.1352 8.92014 15.2509 8.01374 14.1464 8.00012C13.0419 7.98651 12.1355 8.87084 12.1219 9.97532L12.0857 12.9156L9.14537 12.8794C8.04089 12.8658 7.13449 13.7501 7.12088 14.8546C7.10726 15.9591 7.99159 16.8655 9.09608 16.8791L12.0364 16.9153L12.0002 19.8557Z" fill="#322C58"/>
</svg>
