<svg width="16" height="18" viewBox="0 0 16 18" fill="none" xmlns="http://www.w3.org/2000/svg">
<path d="M13.8567 7C14.3456 10.7333 13.8567 13.0667 7.99029 14C2.12387 13.0667 1.68932 10.7333 2.12388 7C2.61275 2.8 4.75036 0 7.99029 0C11.2302 0 13.3678 3.26667 13.8567 7Z" fill="#FFF069"/>
<path d="M16 12.0247C16 13.6815 12.4183 15.0247 8 15.0247C3.58172 15.0247 0 13.6815 0 12.0247C2 8.52469 3.58172 9.02469 8 9.02469C12.4183 9.02469 13.5 8.52469 16 12.0247Z" fill="#FFF069"/>
<path d="M10 16.4991C10 17.328 9.10457 18 8 18C6.89543 18 6 17.328 6 16.4991C6 15.6702 6.89543 16.1239 8 16.1239C9.10457 16.1239 10 15.6702 10 16.4991Z" fill="#FFF069"/>
</svg>
