<svg width="39" height="38" viewBox="0 0 39 38" fill="none" xmlns="http://www.w3.org/2000/svg">
<mask id="path-1-inside-1_8_13" fill="white">
<path fill-rule="evenodd" clip-rule="evenodd" d="M27.0541 13.8032C28.3063 13.2345 29.1739 12 29.1739 10.5686C29.1739 8.59773 27.529 7 25.5 7C23.471 7 21.8261 8.59773 21.8261 10.5686C21.8261 12 22.6937 13.2345 23.9459 13.8032C22.8038 14.1239 21.7493 14.795 20.9038 15.7591C19.6848 17.1491 19 19.0343 19 21L25.5 21H32C32 19.0343 31.3152 17.1491 30.0962 15.7591C29.2507 14.795 28.1962 14.1239 27.0541 13.8032Z"/>
</mask>
<path fill-rule="evenodd" clip-rule="evenodd" d="M27.0541 13.8032C28.3063 13.2345 29.1739 12 29.1739 10.5686C29.1739 8.59773 27.529 7 25.5 7C23.471 7 21.8261 8.59773 21.8261 10.5686C21.8261 12 22.6937 13.2345 23.9459 13.8032C22.8038 14.1239 21.7493 14.795 20.9038 15.7591C19.6848 17.1491 19 19.0343 19 21L25.5 21H32C32 19.0343 31.3152 17.1491 30.0962 15.7591C29.2507 14.795 28.1962 14.1239 27.0541 13.8032Z" fill="white"/>
<path d="M27.0541 13.8032L27.0128 13.7121L26.7633 13.8254L27.0271 13.8995L27.0541 13.8032ZM23.9459 13.8032L23.9729 13.8995L24.2367 13.8254L23.9872 13.7121L23.9459 13.8032ZM20.9038 15.7591L20.8286 15.6932L20.8286 15.6932L20.9038 15.7591ZM19 21H18.9V21.1L19 21.1L19 21ZM25.5 21L25.5 21.1H25.5V21ZM32 21V21.1H32.1V21H32ZM30.0962 15.7591L30.021 15.825L30.021 15.825L30.0962 15.7591ZM29.0739 10.5686C29.0739 11.9581 28.2318 13.1586 27.0128 13.7121L27.0955 13.8942C28.3809 13.3105 29.2739 12.0419 29.2739 10.5686H29.0739ZM25.5 7.1C27.4766 7.1 29.0739 8.65568 29.0739 10.5686H29.2739C29.2739 8.53978 27.5815 6.9 25.5 6.9V7.1ZM21.9261 10.5686C21.9261 8.65568 23.5234 7.1 25.5 7.1V6.9C23.4185 6.9 21.7261 8.53978 21.7261 10.5686H21.9261ZM23.9872 13.7121C22.7682 13.1586 21.9261 11.9581 21.9261 10.5686H21.7261C21.7261 12.0419 22.6191 13.3105 23.9045 13.8942L23.9872 13.7121ZM23.9188 13.7069C22.7571 14.0331 21.6862 14.7153 20.8286 15.6932L20.979 15.825C21.8125 14.8746 22.8505 14.2146 23.9729 13.8995L23.9188 13.7069ZM20.8286 15.6932C19.5926 17.1026 18.9 19.0117 18.9 21H19.1C19.1 19.0569 19.7771 17.1955 20.979 15.825L20.8286 15.6932ZM19 21.1L25.5 21.1L25.5 20.9L19 20.9L19 21.1ZM25.5 21.1H32V20.9H25.5V21.1ZM32.1 21C32.1 19.0117 31.4074 17.1026 30.1714 15.6932L30.021 15.825C31.2229 17.1955 31.9 19.0569 31.9 21H32.1ZM30.1714 15.6932C29.3138 14.7153 28.2429 14.0331 27.0812 13.7069L27.0271 13.8995C28.1495 14.2146 29.1875 14.8746 30.021 15.825L30.1714 15.6932Z" fill="#322C58" mask="url(#path-1-inside-1_8_13)"/>
<mask id="path-3-inside-2_8_13" fill="white">
<path fill-rule="evenodd" clip-rule="evenodd" d="M15.0541 13.8032C16.3063 13.2345 17.1739 12 17.1739 10.5686C17.1739 8.59773 15.529 7 13.5 7C11.471 7 9.82609 8.59773 9.82609 10.5686C9.82609 12 10.6937 13.2345 11.9459 13.8032C10.8038 14.1239 9.74933 14.795 8.90381 15.7591C7.68482 17.1491 7 19.0343 7 21L13.5 21H20C20 19.0343 19.3152 17.1491 18.0962 15.7591C17.2507 14.795 16.1962 14.1239 15.0541 13.8032Z"/>
</mask>
<path fill-rule="evenodd" clip-rule="evenodd" d="M15.0541 13.8032C16.3063 13.2345 17.1739 12 17.1739 10.5686C17.1739 8.59773 15.529 7 13.5 7C11.471 7 9.82609 8.59773 9.82609 10.5686C9.82609 12 10.6937 13.2345 11.9459 13.8032C10.8038 14.1239 9.74933 14.795 8.90381 15.7591C7.68482 17.1491 7 19.0343 7 21L13.5 21H20C20 19.0343 19.3152 17.1491 18.0962 15.7591C17.2507 14.795 16.1962 14.1239 15.0541 13.8032Z" fill="white"/>
<path d="M15.0541 13.8032L15.0128 13.7121L14.7633 13.8254L15.0271 13.8995L15.0541 13.8032ZM11.9459 13.8032L11.9729 13.8995L12.2367 13.8254L11.9872 13.7121L11.9459 13.8032ZM8.90381 15.7591L8.82862 15.6932L8.82862 15.6932L8.90381 15.7591ZM7 21H6.9V21.1L7 21.1L7 21ZM13.5 21L13.5 21.1H13.5V21ZM20 21V21.1H20.1V21H20ZM18.0962 15.7591L18.021 15.825L18.021 15.825L18.0962 15.7591ZM17.0739 10.5686C17.0739 11.9581 16.2318 13.1586 15.0128 13.7121L15.0955 13.8942C16.3809 13.3105 17.2739 12.0419 17.2739 10.5686H17.0739ZM13.5 7.1C15.4766 7.1 17.0739 8.65568 17.0739 10.5686H17.2739C17.2739 8.53978 15.5815 6.9 13.5 6.9V7.1ZM9.92609 10.5686C9.92609 8.65568 11.5234 7.1 13.5 7.1V6.9C11.4185 6.9 9.72609 8.53978 9.72609 10.5686H9.92609ZM11.9872 13.7121C10.7682 13.1586 9.92609 11.9581 9.92609 10.5686H9.72609C9.72609 12.0419 10.6191 13.3105 11.9045 13.8942L11.9872 13.7121ZM11.9188 13.7069C10.7571 14.0331 9.68619 14.7153 8.82862 15.6932L8.97899 15.825C9.81248 14.8746 10.8505 14.2146 11.9729 13.8995L11.9188 13.7069ZM8.82862 15.6932C7.59257 17.1026 6.9 19.0117 6.9 21H7.1C7.1 19.0569 7.77707 17.1955 8.97899 15.825L8.82862 15.6932ZM7 21.1L13.5 21.1L13.5 20.9L7 20.9L7 21.1ZM13.5 21.1H20V20.9H13.5V21.1ZM20.1 21C20.1 19.0117 19.4074 17.1026 18.1714 15.6932L18.021 15.825C19.2229 17.1955 19.9 19.0569 19.9 21H20.1ZM18.1714 15.6932C17.3138 14.7153 16.2429 14.0331 15.0812 13.7069L15.0271 13.8995C16.1495 14.2146 17.1875 14.8746 18.021 15.825L18.1714 15.6932Z" fill="#322C58" mask="url(#path-3-inside-2_8_13)"/>
<path d="M21.0334 22.7577L20.9087 22.8143L21.0406 22.8513C22.1728 23.1693 23.2191 23.8348 24.0586 24.7921C25.2587 26.1605 25.9383 28.0136 25.9499 29.95L13.0501 29.95C13.0617 28.0136 13.7413 26.1605 14.9414 24.7921C15.7809 23.8348 16.8272 23.1693 17.9594 22.8513L18.0913 22.8143L17.9666 22.7577C16.7309 22.1966 15.8761 20.9791 15.8761 19.5686C15.8761 17.6267 17.4972 16.05 19.5 16.05C21.5028 16.05 23.1239 17.6267 23.1239 19.5686C23.1239 20.9791 22.2691 22.1966 21.0334 22.7577Z" fill="white" stroke="#322C58" stroke-width="0.1"/>
</svg>
